<svg width="50" height="50" viewBox="0 0 50 50" fill="none" xmlns="http://www.w3.org/2000/svg">
<g id="tabler:exchange">
<g id="Group">
<path id="Vector" d="M6.25 37.4987C6.25 38.6038 6.68899 39.6636 7.47039 40.445C8.25179 41.2264 9.3116 41.6654 10.4167 41.6654C11.5217 41.6654 12.5815 41.2264 13.3629 40.445C14.1443 39.6636 14.5833 38.6038 14.5833 37.4987C14.5833 36.3936 14.1443 35.3338 13.3629 34.5524C12.5815 33.771 11.5217 33.332 10.4167 33.332C9.3116 33.332 8.25179 33.771 7.47039 34.5524C6.68899 35.3338 6.25 36.3936 6.25 37.4987ZM35.4167 12.4987C35.4167 13.6038 35.8557 14.6636 36.6371 15.445C37.4185 16.2264 38.4783 16.6654 39.5833 16.6654C40.6884 16.6654 41.7482 16.2264 42.5296 15.445C43.311 14.6636 43.75 13.6038 43.75 12.4987C43.75 11.3936 43.311 10.3338 42.5296 9.55242C41.7482 8.77102 40.6884 8.33203 39.5833 8.33203C38.4783 8.33203 37.4185 8.77102 36.6371 9.55242C35.8557 10.3338 35.4167 11.3936 35.4167 12.4987Z" stroke="black" stroke-width="4.16667" stroke-linecap="round" stroke-linejoin="round"/>
<path id="Vector_2" d="M39.5833 16.6667V27.0833C39.5833 29.846 38.4858 32.4955 36.5323 34.449C34.5788 36.4025 31.9293 37.5 29.1666 37.5H22.9166M22.9166 37.5L29.1666 31.25M22.9166 37.5L29.1666 43.75M10.4166 33.3333V22.9167C10.4166 20.154 11.5141 17.5045 13.4676 15.551C15.4211 13.5975 18.0706 12.5 20.8333 12.5H27.0833M27.0833 12.5L20.8333 6.25M27.0833 12.5L20.8333 18.75" stroke="black" stroke-width="4.16667" stroke-linecap="round" stroke-linejoin="round"/>
</g>
</g>
</svg>
