<svg width="31" height="31" viewBox="0 0 31 31" fill="none" xmlns="http://www.w3.org/2000/svg">
<g id="Component 22">
<g id="Vector">
<path d="M31 15.5C31 24.0604 24.0604 31 15.5 31C6.93959 31 0 24.0604 0 15.5C0 6.93959 6.93959 0 15.5 0C24.0604 0 31 6.93959 31 15.5Z" fill="#6D3698"/>
<path d="M22.2303 21.8632C22.2303 22.6421 21.9208 23.3891 21.3701 23.9398C20.8193 24.4906 20.0723 24.8 19.2934 24.8H12.4408C11.6619 24.8 10.9149 24.4906 10.3641 23.9398C9.81336 23.3891 9.50395 22.6421 9.50395 21.8632V10.1158H8.525V7.17895H12.9303L13.9092 6.2H17.825L18.8039 7.17895H23.2092V10.1158H22.2303V21.8632ZM10.4829 10.1158V21.8632C10.4829 22.3824 10.6892 22.8804 11.0563 23.2476C11.4235 23.6148 11.9215 23.8211 12.4408 23.8211H19.2934C19.8127 23.8211 20.3107 23.6148 20.6779 23.2476C21.045 22.8804 21.2513 22.3824 21.2513 21.8632V10.1158H10.4829ZM22.2303 9.13684V8.15789H18.3145L17.3355 7.17895H14.3987L13.4197 8.15789H9.50395V9.13684H22.2303ZM12.4408 12.0737H13.4197V21.8632H12.4408V12.0737ZM18.3145 12.0737H19.2934V21.8632H18.3145V12.0737Z" fill="white"/>
</g>
</g>
</svg>
