<svg xmlns="http://www.w3.org/2000/svg" width="26" height="26" viewBox="0 0 26 26" fill="none">
  <path d="M6.1579 26C4.52472 26 2.95843 25.3512 1.80361 24.1964C0.648776 23.0416 0 21.4753 0 19.8421C0 18.2089 0.648776 16.6426 1.80361 15.4878C2.95843 14.333 4.52472 13.6842 6.1579 13.6842C7.79107 13.6842 9.35735 14.333 10.5122 15.4878C11.667 16.6426 12.3158 18.2089 12.3158 19.8421C12.3158 21.4753 11.667 23.0416 10.5122 24.1964C9.35735 25.3512 7.79107 26 6.1579 26ZM19.8421 12.3158C19.0334 12.3158 18.2327 12.1565 17.4856 11.847C16.7385 11.5376 16.0596 11.084 15.4878 10.5122C14.916 9.94037 14.4624 9.26153 14.153 8.51442C13.8435 7.76731 13.6842 6.96656 13.6842 6.1579C13.6842 5.34923 13.8435 4.54848 14.153 3.80137C14.4624 3.05426 14.916 2.37542 15.4878 1.80361C16.0596 1.23179 16.7385 0.778205 17.4856 0.468742C18.2327 0.159279 19.0334 -1.20501e-08 19.8421 0C21.4753 2.43362e-08 23.0416 0.648776 24.1964 1.80361C25.3512 2.95843 26 4.52472 26 6.1579C26 7.79107 25.3512 9.35735 24.1964 10.5122C23.0416 11.667 21.4753 12.3158 19.8421 12.3158ZM0.684211 7.52632C0.684211 5.71168 1.40507 3.97136 2.68822 2.68822C3.97136 1.40507 5.71168 0.684211 7.52632 0.684211H11.6316V3.42105H7.52632C6.43753 3.42105 5.39334 3.85357 4.62346 4.62346C3.85357 5.39334 3.42105 6.43753 3.42105 7.52632V11.6316H0.684211V7.52632ZM22.5789 14.3684V18.4737C22.5789 19.5625 22.1464 20.6067 21.3765 21.3765C20.6067 22.1464 19.5625 22.5789 18.4737 22.5789H14.3684V25.3158H18.4737C20.2883 25.3158 22.0286 24.5949 23.3118 23.3118C24.5949 22.0286 25.3158 20.2883 25.3158 18.4737V14.3684H22.5789Z" fill="#6D3698"/>
</svg>