<svg width="47" height="47" viewBox="0 0 47 47" fill="none" xmlns="http://www.w3.org/2000/svg">
<path id="Vector" d="M24.0464 3.04399C23.6957 2.90344 23.3043 2.90344 22.9536 3.04399L5.42263 10.0558L23.5 17.285L41.5774 10.0558L24.0464 3.04399ZM44.0625 12.2266L24.9688 19.8641V43.135L44.0625 35.4975V12.2266ZM22.0312 43.1379V19.8612L2.9375 12.2266V35.5004L22.0312 43.1379ZM21.8638 0.315049C22.9142 -0.105016 24.0858 -0.105016 25.1362 0.315049L46.0776 8.6928C46.3499 8.80191 46.5833 8.99005 46.7477 9.23298C46.912 9.4759 46.9999 9.76248 47 10.0558V35.5004C46.9996 36.0874 46.8234 36.6608 46.4941 37.1467C46.1647 37.6326 45.6974 38.0087 45.1523 38.2264L24.0464 46.6688C23.6957 46.8093 23.3043 46.8093 22.9536 46.6688L1.85063 38.2264C1.30499 38.0091 0.837018 37.6332 0.507136 37.1473C0.177254 36.6614 0.000606092 36.0877 0 35.5004L0 10.0558C6.82673e-05 9.76248 0.0879598 9.4759 0.252352 9.23298C0.416744 8.99005 0.650106 8.80191 0.922375 8.6928L21.8638 0.315049Z" fill="#FAAA1D"/>
</svg>
