<svg width="39" height="39" viewBox="0 0 39 39" fill="none" xmlns="http://www.w3.org/2000/svg">
<g id="tabler:exchange">
<g id="Group">
<path id="Vector" d="M4.875 29.25C4.875 30.112 5.21741 30.9386 5.8269 31.5481C6.4364 32.1576 7.26305 32.5 8.125 32.5C8.98695 32.5 9.8136 32.1576 10.4231 31.5481C11.0326 30.9386 11.375 30.112 11.375 29.25C11.375 28.388 11.0326 27.5614 10.4231 26.9519C9.8136 26.3424 8.98695 26 8.125 26C7.26305 26 6.4364 26.3424 5.8269 26.9519C5.21741 27.5614 4.875 28.388 4.875 29.25ZM27.625 9.75C27.625 10.612 27.9674 11.4386 28.5769 12.0481C29.1864 12.6576 30.013 13 30.875 13C31.737 13 32.5636 12.6576 33.1731 12.0481C33.7826 11.4386 34.125 10.612 34.125 9.75C34.125 8.88805 33.7826 8.0614 33.1731 7.4519C32.5636 6.84241 31.737 6.5 30.875 6.5C30.013 6.5 29.1864 6.84241 28.5769 7.4519C27.9674 8.0614 27.625 8.88805 27.625 9.75Z" stroke="black" stroke-width="3.25" stroke-linecap="round" stroke-linejoin="round"/>
<path id="Vector_2" d="M30.875 13V21.125C30.875 23.2799 30.019 25.3465 28.4952 26.8702C26.9715 28.394 24.9049 29.25 22.75 29.25H17.875M17.875 29.25L22.75 24.375M17.875 29.25L22.75 34.125M8.125 26V17.875C8.125 15.7201 8.98102 13.6535 10.5048 12.1298C12.0285 10.606 14.0951 9.75 16.25 9.75H21.125M21.125 9.75L16.25 4.875M21.125 9.75L16.25 14.625" stroke="black" stroke-width="3.25" stroke-linecap="round" stroke-linejoin="round"/>
</g>
</g>
</svg>
